<svg width="80" height="80" viewBox="0 0 80 80" fill="none" xmlns="http://www.w3.org/2000/svg">
<path d="M42.7998 0C42.7998 19.9847 41.1607 23.8318 40.9727 37.4092C50.4406 27.6754 52.0024 23.7964 66.1338 9.66504L70.2344 13.7666C56.1525 27.8484 52.2502 29.4469 42.5908 38.8271C56.1682 38.6391 60.0153 37 80 37V42.7998C59.9151 42.7998 56.13 41.145 42.3857 40.9707C52.1967 50.5297 56.0533 52.0514 70.2354 66.2334L66.1338 70.335C52.0022 56.2033 50.4409 52.324 40.9727 42.5898C41.1606 56.168 42.7998 60.0149 42.7998 80H37C37 60.0144 38.6393 56.1678 38.8271 42.5889C29.3584 52.3233 27.7979 56.2031 13.666 70.335L9.56543 66.2334C23.7463 52.0526 27.6027 50.5298 37.4121 40.9727C23.8323 41.1605 19.9861 42.7998 0 42.7998V37C19.8847 37 23.7929 38.6237 37.2061 38.8252C27.5485 29.4471 23.6461 27.8472 9.56543 13.7666L13.666 9.66504C27.7977 23.7967 29.3588 27.676 38.8271 37.4102C38.6392 23.832 37 19.9851 37 0H42.7998Z" fill="black"/>
</svg>
