<svg width="573" height="155" viewBox="0 0 573 155" fill="none" xmlns="http://www.w3.org/2000/svg">
<path d="M83 0.5H481C503.92 0.5 522.5 19.0802 522.5 42C522.5 49.878 520.304 57.2406 516.492 63.5137C515.731 64.7659 515.777 66.2571 516.364 67.4277C516.954 68.6022 518.114 69.4998 519.607 69.5H531C553.92 69.5 572.5 88.0802 572.5 111V113C572.5 135.92 553.92 154.5 531 154.5H42C19.0802 154.5 0.5 135.92 0.5 113V111C0.5 88.0802 19.0802 69.5 42 69.5H44.3926C45.8862 69.4998 47.0464 68.6022 47.6357 67.4277C48.223 66.2571 48.2687 64.7659 47.5078 63.5137C43.6962 57.2406 41.5 49.878 41.5 42C41.5 19.4384 59.504 1.08189 81.9287 0.513672L83 0.5Z" fill="#F0F4F1" stroke="#282828"/>
<path d="M527.031 119.76H522.711L501.831 85.1196H509.271L519.671 102.96L524.871 113.68L530.311 103.04L541.111 85.1196H547.911L527.031 119.76ZM527.911 138.72H521.831V116.08H527.911V138.72Z" fill="#282828"/>
<path d="M487.648 138.72H481.568V85.1196H487.648V138.72ZM516.128 138.72H483.648V133.28H516.128V138.72Z" fill="#282828"/>
<path d="M457.196 139.44C453.942 139.44 450.796 138.987 447.756 138.08C444.716 137.173 442.049 135.707 439.756 133.68C437.516 131.6 435.809 128.907 434.636 125.6L439.276 121.6C440.129 124.587 441.516 126.96 443.436 128.72C445.409 130.48 447.622 131.76 450.076 132.56C452.582 133.36 454.956 133.76 457.196 133.76C459.329 133.76 461.276 133.467 463.036 132.88C464.796 132.293 466.209 131.36 467.276 130.08C468.342 128.747 468.876 127.04 468.876 124.96C468.876 122.88 468.396 121.227 467.436 120C466.476 118.773 465.089 117.787 463.276 117.04C461.462 116.293 459.276 115.627 456.716 115.04L451.276 113.84C449.462 113.413 447.649 112.88 445.836 112.24C444.076 111.547 442.476 110.667 441.036 109.6C439.596 108.48 438.449 107.093 437.596 105.44C436.742 103.733 436.316 101.653 436.316 99.1999C436.316 95.9466 437.116 93.2266 438.716 91.0399C440.369 88.8532 442.529 87.1999 445.196 86.0799C447.916 84.9599 450.822 84.3999 453.916 84.3999C458.769 84.3999 462.982 85.4666 466.556 87.5999C470.129 89.6799 472.716 92.7466 474.316 96.7999L469.196 100.88C467.969 97.1466 465.996 94.4532 463.276 92.7999C460.609 91.0932 457.436 90.2399 453.756 90.2399C451.676 90.2399 449.809 90.5866 448.156 91.2799C446.502 91.9199 445.196 92.8799 444.236 94.1599C443.276 95.4399 442.796 96.9866 442.796 98.7999C442.796 101.573 443.702 103.627 445.516 104.96C447.382 106.293 449.942 107.36 453.196 108.16L459.356 109.68C461.329 110.16 463.249 110.747 465.116 111.44C467.036 112.133 468.742 113.04 470.236 114.16C471.729 115.28 472.902 116.693 473.756 118.4C474.662 120.107 475.116 122.24 475.116 124.8C475.116 127.893 474.316 130.533 472.716 132.72C471.169 134.907 469.036 136.587 466.316 137.76C463.649 138.88 460.609 139.44 457.196 139.44Z" fill="#282828"/>
<path d="M409.203 139.52C402.323 139.52 397.23 137.653 393.923 133.92C390.67 130.133 389.043 124.293 389.043 116.4V85.1196H395.123V116.4C395.123 122.533 396.216 126.96 398.403 129.68C400.59 132.4 404.216 133.76 409.283 133.76C414.456 133.76 418.11 132.4 420.243 129.68C422.376 126.96 423.443 122.533 423.443 116.4V85.1196H429.523V116.4C429.523 124.293 427.896 130.133 424.643 133.92C421.39 137.653 416.243 139.52 409.203 139.52Z" fill="#282828"/>
<path d="M357.421 139.52C353.581 139.52 350.087 138.826 346.941 137.44C343.794 136 341.074 134.026 338.781 131.52C336.541 129.013 334.807 126.08 333.581 122.72C332.354 119.36 331.741 115.733 331.741 111.84C331.741 108 332.354 104.426 333.581 101.12C334.807 97.7598 336.541 94.8265 338.781 92.3198C341.074 89.8132 343.794 87.8665 346.941 86.4798C350.087 85.0398 353.581 84.3198 357.421 84.3198C361.261 84.3198 364.754 85.0398 367.901 86.4798C371.047 87.8665 373.741 89.8132 375.981 92.3198C378.274 94.8265 380.034 97.7598 381.261 101.12C382.487 104.426 383.101 108 383.101 111.84C383.101 115.733 382.487 119.36 381.261 122.72C380.034 126.08 378.274 129.013 375.981 131.52C373.741 134.026 371.047 136 367.901 137.44C364.754 138.826 361.261 139.52 357.421 139.52ZM357.501 133.76C361.661 133.76 365.154 132.826 367.981 130.96C370.861 129.04 373.047 126.426 374.541 123.12C376.034 119.813 376.781 116.053 376.781 111.84C376.781 107.626 376.034 103.893 374.541 100.64C373.047 97.3865 370.861 94.8265 367.981 92.9598C365.154 91.0398 361.661 90.0798 357.501 90.0798C353.341 90.0798 349.821 91.0398 346.941 92.9598C344.061 94.8265 341.874 97.3865 340.381 100.64C338.887 103.893 338.141 107.626 338.141 111.84C338.141 116.053 338.887 119.813 340.381 123.12C341.874 126.426 344.061 129.04 346.941 130.96C349.821 132.826 353.341 133.76 357.501 133.76Z" fill="#282828"/>
<path d="M305.525 139.52C298.645 139.52 293.552 137.653 290.245 133.92C286.992 130.133 285.365 124.293 285.365 116.4V85.1196H291.445V116.4C291.445 122.533 292.539 126.96 294.725 129.68C296.912 132.4 300.539 133.76 305.605 133.76C310.779 133.76 314.432 132.4 316.565 129.68C318.699 126.96 319.765 122.533 319.765 116.4V85.1196H325.845V116.4C325.845 124.293 324.219 130.133 320.965 133.92C317.712 137.653 312.565 139.52 305.525 139.52Z" fill="#282828"/>
<path d="M240.367 138.72H234.287V85.1196H239.727L264.767 121.2L269.807 128.96L269.487 121.36V85.1196H275.567V138.72H270.127L244.367 101.76L240.047 95.1996L240.367 101.76V138.72Z" fill="#282828"/>
<path d="M223.645 138.72H217.565V85.1196H223.645V138.72Z" fill="#282828"/>
<path d="M199.487 138.72H193.407V85.1196H199.487V138.72ZM216.687 90.5596H176.207V85.1196H216.687V90.5596Z" fill="#282828"/>
<path d="M140.123 138.72H134.043V85.1196H139.483L164.523 121.2L169.563 128.96L169.243 121.36V85.1196H175.323V138.72H169.883L144.123 101.76L139.803 95.1996L140.123 101.76V138.72Z" fill="#282828"/>
<path d="M101.62 139.52C97.7804 139.52 94.2871 138.826 91.1404 137.44C87.9938 136 85.2738 134.026 82.9804 131.52C80.7404 129.013 79.0071 126.08 77.7804 122.72C76.5538 119.36 75.9404 115.733 75.9404 111.84C75.9404 108 76.5538 104.426 77.7804 101.12C79.0071 97.7598 80.7404 94.8265 82.9804 92.3198C85.2738 89.8132 87.9938 87.8665 91.1404 86.4798C94.2871 85.0398 97.7804 84.3198 101.62 84.3198C105.46 84.3198 108.954 85.0398 112.1 86.4798C115.247 87.8665 117.94 89.8132 120.18 92.3198C122.474 94.8265 124.234 97.7598 125.46 101.12C126.687 104.426 127.3 108 127.3 111.84C127.3 115.733 126.687 119.36 125.46 122.72C124.234 126.08 122.474 129.013 120.18 131.52C117.94 134.026 115.247 136 112.1 137.44C108.954 138.826 105.46 139.52 101.62 139.52ZM101.7 133.76C105.86 133.76 109.354 132.826 112.18 130.96C115.06 129.04 117.247 126.426 118.74 123.12C120.234 119.813 120.98 116.053 120.98 111.84C120.98 107.626 120.234 103.893 118.74 100.64C117.247 97.3865 115.06 94.8265 112.18 92.9598C109.354 91.0398 105.86 90.0798 101.7 90.0798C97.5404 90.0798 94.0204 91.0398 91.1404 92.9598C88.2604 94.8265 86.0738 97.3865 84.5804 100.64C83.0871 103.893 82.3404 107.626 82.3404 111.84C82.3404 116.053 83.0871 119.813 84.5804 123.12C86.0738 126.426 88.2604 129.04 91.1404 130.96C94.0204 132.826 97.5404 133.76 101.7 133.76Z" fill="#282828"/>
<path d="M49.8 139.36C44.4667 139.36 39.96 138.16 36.28 135.76C32.6 133.306 29.8 130 27.88 125.84C25.96 121.68 25 117.013 25 111.84C25 106.613 25.96 101.946 27.88 97.8398C29.8 93.6798 32.6 90.3998 36.28 87.9998C39.96 85.5465 44.4667 84.3198 49.8 84.3198C53.8533 84.3198 57.4267 85.0398 60.52 86.4798C63.6133 87.8665 66.2 89.8665 68.28 92.4798C70.4133 95.0932 72.0133 98.2132 73.08 101.84L67.72 105.36C67.08 102.32 66.0133 99.6532 64.52 97.3598C63.08 95.0665 61.16 93.2798 58.76 91.9998C56.36 90.7198 53.4 90.0798 49.88 90.0798C45.72 90.0798 42.28 91.0132 39.56 92.8798C36.84 94.7465 34.7867 97.3065 33.4 100.56C32.0667 103.813 31.4 107.573 31.4 111.84C31.4 116.053 32.0667 119.813 33.4 123.12C34.7867 126.373 36.84 128.933 39.56 130.8C42.28 132.666 45.72 133.6 49.88 133.6C53.4 133.6 56.36 132.96 58.76 131.68C61.16 130.4 63.08 128.613 64.52 126.32C66.0133 123.973 67.08 121.306 67.72 118.32L73.08 121.84C72.0133 125.413 70.4133 128.533 68.28 131.2C66.2 133.813 63.6133 135.84 60.52 137.28C57.4267 138.666 53.8533 139.36 49.8 139.36Z" fill="#282828"/>
<path d="M469.863 65.2407L488.847 46.3345H441.347V41.4126H488.847L469.863 22.4282L473.378 18.9907L498.144 43.8345L473.378 68.6782L469.863 65.2407Z" fill="#282828"/>
<path d="M400.172 65.2407L419.157 46.3345H371.657V41.4126H419.157L400.172 22.4282L403.688 18.9907L428.454 43.8345L403.688 68.6782L400.172 65.2407Z" fill="#282828"/>
<path d="M330.481 65.2407L349.466 46.3345H301.966V41.4126H349.466L330.481 22.4282L333.997 18.9907L358.763 43.8345L333.997 68.6782L330.481 65.2407Z" fill="#282828"/>
<path d="M240.295 68.6H234.215V15H239.655L264.695 51.08L269.735 58.84L269.415 51.24V15H275.495V68.6H270.055L244.295 31.64L239.975 25.08L240.295 31.64V68.6Z" fill="#282828"/>
<path d="M211.561 46.84H190.121V41.72H209.881C212.227 41.72 214.361 41.4 216.281 40.76C218.254 40.0667 219.801 38.9733 220.921 37.48C222.094 35.9333 222.681 33.8533 222.681 31.24C222.681 28.52 222.094 26.3867 220.921 24.84C219.747 23.24 218.174 22.12 216.201 21.48C214.281 20.7867 212.147 20.44 209.801 20.44H190.121V15H210.761C214.281 15 217.401 15.64 220.121 16.92C222.841 18.1467 224.974 19.96 226.521 22.36C228.121 24.76 228.921 27.72 228.921 31.24C228.921 34.44 228.174 37.1867 226.681 39.48C225.241 41.72 223.214 43.4533 220.601 44.68C217.987 45.8533 214.974 46.44 211.561 46.44V46.84ZM194.121 68.6H188.041V15H194.121V68.6ZM230.441 68.6H223.241L213.641 51.96C212.627 50.1467 211.294 48.84 209.641 48.04C208.041 47.24 205.907 46.84 203.241 46.84L211.401 45.72C212.787 45.8267 214.014 46.12 215.081 46.6C216.147 47.08 217.134 47.7467 218.041 48.6C219.001 49.4533 219.881 50.5733 220.681 51.96L230.441 68.6Z" fill="#282828"/>
<path d="M143.757 68.6H137.277L158.877 15H164.957L186.557 68.6H179.757L164.557 29.56L161.757 21.24L159.037 29.56L143.757 68.6ZM176.077 52.92H147.357V47.48H176.077V52.92Z" fill="#282828"/>
<path d="M108.489 68.6H102.409V15H108.489V68.6ZM138.729 68.6H104.489V63.16H138.729V68.6ZM133.529 43.88H104.489V38.52H133.529V43.88ZM138.729 20.44H104.489V15H138.729V20.44Z" fill="#282828"/>
<path d="M72.08 68.6H66V15H72.08V68.6ZM100.56 68.6H68.08V63.16H100.56V68.6Z" fill="#282828"/>
</svg>
