<svg width="495" height="155" viewBox="0 0 495 155" fill="none" xmlns="http://www.w3.org/2000/svg">
<path d="M453 0.399414C476.196 0.399414 495 19.2044 495 42.4004V43.4004C495 66.5961 476.196 85.4004 453 85.4004H413.176C410.67 85.4004 409.203 88.3491 410.451 90.5228C413.981 96.6727 416 103.801 416 111.4V112.4C416 135.596 397.196 154.4 374 154.4H121C97.804 154.4 79 135.595 79 112.399V111.399C79.0001 103.8 81.0189 96.6724 84.5489 90.5228C85.7967 88.3491 84.3304 85.4004 81.824 85.4004H42C18.804 85.4004 0 66.5954 0 43.3994V42.3994C0.000262567 19.2037 18.8042 0.399414 42 0.399414H453Z" fill="#282828"/>
<path d="M371.694 120H352.814V114.56H370.734C373.081 114.56 375.268 114.213 377.294 113.52C379.374 112.826 381.054 111.626 382.334 109.92C383.614 108.16 384.254 105.786 384.254 102.8C384.254 99.4931 383.614 96.9331 382.334 95.1198C381.054 93.3065 379.374 92.0531 377.294 91.3598C375.268 90.6131 373.081 90.2398 370.734 90.2398H352.814V84.7998H371.694C375.214 84.7998 378.388 85.4665 381.214 86.7998C384.094 88.0798 386.361 90.0531 388.014 92.7198C389.668 95.3865 390.494 98.7465 390.494 102.8C390.494 106.586 389.668 109.76 388.014 112.32C386.361 114.88 384.094 116.8 381.214 118.08C378.388 119.36 375.214 120 371.694 120ZM356.814 138.4H350.734V84.7998H356.814V138.4Z" fill="#F0F4F1"/>
<path d="M320.638 139.2C313.758 139.2 308.665 137.333 305.358 133.6C302.105 129.813 300.478 123.973 300.478 116.08V84.7998H306.558V116.08C306.558 122.213 307.651 126.64 309.838 129.36C312.025 132.08 315.651 133.44 320.718 133.44C325.891 133.44 329.545 132.08 331.678 129.36C333.811 126.64 334.878 122.213 334.878 116.08V84.7998H340.958V116.08C340.958 123.973 339.331 129.813 336.078 133.6C332.825 137.333 327.678 139.2 320.638 139.2Z" fill="#F0F4F1"/>
<path d="M261.652 138.4H255.572V84.7998H261.652V104L261.412 113.76L268.852 105.84L289.012 84.7998H296.692L274.132 108.24L273.492 108.64L261.652 120.96V138.4ZM298.292 138.4H290.692L270.292 108L274.772 103.6L298.292 138.4Z" fill="#F0F4F1"/>
<path d="M232.916 116.64H211.476V111.52H231.236C233.583 111.52 235.716 111.2 237.636 110.56C239.61 109.866 241.156 108.773 242.276 107.28C243.45 105.733 244.036 103.653 244.036 101.04C244.036 98.3198 243.45 96.1865 242.276 94.6398C241.103 93.0398 239.53 91.9198 237.556 91.2798C235.636 90.5865 233.503 90.2398 231.156 90.2398H211.476V84.7998H232.116C235.636 84.7998 238.756 85.4398 241.476 86.7198C244.196 87.9465 246.33 89.7598 247.876 92.1598C249.476 94.5598 250.276 97.5198 250.276 101.04C250.276 104.24 249.53 106.986 248.036 109.28C246.596 111.52 244.57 113.253 241.956 114.48C239.343 115.653 236.33 116.24 232.916 116.24V116.64ZM215.476 138.4H209.396V84.7998H215.476V138.4ZM251.796 138.4H244.596L234.996 121.76C233.983 119.946 232.65 118.64 230.996 117.84C229.396 117.04 227.263 116.64 224.596 116.64L232.756 115.52C234.143 115.626 235.37 115.92 236.436 116.4C237.503 116.88 238.49 117.546 239.396 118.4C240.356 119.253 241.236 120.373 242.036 121.76L251.796 138.4Z" fill="#F0F4F1"/>
<path d="M165.113 138.4H158.633L180.233 84.7998H186.313L207.913 138.4H201.113L185.913 99.3598L183.113 91.0398L180.393 99.3598L165.113 138.4ZM197.433 122.72H168.713V117.28H197.433V122.72Z" fill="#F0F4F1"/>
<path d="M110.08 138.4H104V84.7998H110.8L125.52 112.64L130.56 123.44L135.6 112.64L150.32 84.7998H157.12V138.4H151.04V106.48L151.6 93.2798L146.16 105.44L133.52 129.04H127.6L114.96 105.44L109.36 93.2798L110.08 106.48V138.4Z" fill="#F0F4F1"/>
<path d="M441.03 69.3998H434.95V15.7998H441.03V69.3998ZM469.51 69.3998H437.03V63.9598H469.51V69.3998Z" fill="#F0F4F1"/>
<path d="M404.853 70.1998C397.973 70.1998 392.88 68.3331 389.573 64.5998C386.32 60.8131 384.693 54.9731 384.693 47.0798V15.7998H390.773V47.0798C390.773 53.2131 391.867 57.6398 394.053 60.3598C396.24 63.0798 399.867 64.4398 404.933 64.4398C410.107 64.4398 413.76 63.0798 415.893 60.3598C418.027 57.6398 419.093 53.2131 419.093 47.0798V15.7998H425.173V47.0798C425.173 54.9731 423.547 60.8131 420.293 64.5998C417.04 68.3331 411.893 70.1998 404.853 70.1998Z" fill="#F0F4F1"/>
<path d="M352.586 69.3998H346.506V15.7998H352.586V69.3998ZM376.986 46.9198H348.586V41.5598H376.986V46.9198ZM382.186 21.2398H348.586V15.7998H382.186V21.2398Z" fill="#F0F4F1"/>
<path d="M312.981 70.04C308.235 70.04 304.208 68.8933 300.901 66.6C297.648 64.2533 295.168 61.0267 293.461 56.92C291.808 52.76 290.981 47.96 290.981 42.52C290.981 37.24 291.941 32.52 293.861 28.36C295.781 24.2 298.555 20.9467 302.181 18.6C305.861 16.2 310.341 15 315.621 15C319.408 15 322.768 15.64 325.701 16.92C328.688 18.2 331.221 20.0133 333.301 22.36C335.435 24.7067 337.035 27.56 338.101 30.92L332.741 34.44C332.101 31.8267 331.061 29.5067 329.621 27.48C328.181 25.4 326.315 23.7733 324.021 22.6C321.728 21.3733 318.955 20.76 315.701 20.76C311.595 20.76 308.181 21.6933 305.461 23.56C302.741 25.4267 300.715 27.9867 299.381 31.24C298.048 34.4933 297.381 38.2533 297.381 42.52C297.381 46.7333 298.021 50.4933 299.301 53.8C300.635 57.0533 302.581 59.6133 305.141 61.48C307.755 63.3467 311.035 64.28 314.981 64.28C318.555 64.28 321.461 63.64 323.701 62.36C325.995 61.0267 327.781 59.1333 329.061 56.68C330.341 54.1733 331.328 51.2133 332.021 47.8H332.981L332.661 48.2C332.448 52.36 331.568 56.0933 330.021 59.4C328.475 62.6533 326.261 65.24 323.381 67.16C320.555 69.08 317.088 70.04 312.981 70.04ZM338.341 69.4H334.581L332.661 48.2H314.821V42.84H338.341V69.4Z" fill="#F0F4F1"/>
<path d="M249.064 69.3998H242.984V15.7998H248.424L273.464 51.8798L278.504 59.6398L278.184 52.0398V15.7998H284.264V69.3998H278.824L253.064 32.4398L248.744 25.8798L249.064 32.4398V69.3998Z" fill="#F0F4F1"/>
<path d="M232.342 69.3998H226.262V15.7998H232.342V69.3998Z" fill="#F0F4F1"/>
<path d="M180.464 69.3998H174.384V15.7998H179.824L204.864 51.8798L209.904 59.6398L209.584 52.0398V15.7998H215.664V69.3998H210.224L184.464 32.4398L180.144 25.8798L180.464 32.4398V69.3998Z" fill="#F0F4F1"/>
<path d="M130.101 69.3998H123.621L145.221 15.7998H151.301L172.901 69.3998H166.101L150.901 30.3598L148.101 22.0398L145.381 30.3598L130.101 69.3998ZM162.421 53.7198H133.701V48.2798H162.421V53.7198Z" fill="#F0F4F1"/>
<path d="M94.8329 69.3998H88.7529V15.7998H94.8329V69.3998ZM125.073 69.3998H90.8329V63.9598H125.073V69.3998ZM119.873 44.6798H90.8329V39.3198H119.873V44.6798ZM125.073 21.2398H90.8329V15.7998H125.073V21.2398Z" fill="#F0F4F1"/>
<path d="M31.08 69.3998H25V15.7998H31.8L46.52 43.6398L51.56 54.4398L56.6 43.6398L71.32 15.7998H78.12V69.3998H72.04V37.4798L72.6 24.2798L67.16 36.4398L54.52 60.0398H48.6L35.96 36.4398L30.36 24.2798L31.08 37.4798V69.3998Z" fill="#F0F4F1"/>
</svg>
