<svg width="493" height="155" viewBox="0 0 493 155" fill="none" xmlns="http://www.w3.org/2000/svg">
<path d="M60 0.5H279C301.92 0.500003 320.5 19.0802 320.5 42V43C320.5 50.51 318.505 57.5528 315.018 63.6289C314.301 64.8782 314.368 66.3403 314.962 67.4844C315.558 68.6322 316.708 69.4999 318.176 69.5H451C473.92 69.5 492.5 88.0802 492.5 111V112C492.5 134.92 473.92 153.5 451 153.5H42C19.0802 153.5 0.5 134.92 0.5 112V111C0.5 94.2425 10.4333 79.8058 24.7344 73.2539C26.9893 72.2205 27.773 69.2635 26.3213 67.251C21.4003 60.4296 18.5 52.0545 18.5 43V42C18.5 19.4384 36.504 1.08189 58.9287 0.513672L60 0.5Z" fill="#F0F4F1" stroke="#282828"/>
<path d="M450.008 139.44C446.755 139.44 443.608 138.987 440.568 138.08C437.528 137.173 434.862 135.707 432.568 133.68C430.328 131.6 428.622 128.907 427.448 125.6L432.088 121.6C432.942 124.587 434.328 126.96 436.248 128.72C438.222 130.48 440.435 131.76 442.888 132.56C445.395 133.36 447.768 133.76 450.008 133.76C452.142 133.76 454.088 133.467 455.848 132.88C457.608 132.293 459.022 131.36 460.088 130.08C461.155 128.747 461.688 127.04 461.688 124.96C461.688 122.88 461.208 121.227 460.248 120C459.288 118.773 457.902 117.787 456.088 117.04C454.275 116.293 452.088 115.627 449.528 115.04L444.088 113.84C442.275 113.413 440.462 112.88 438.648 112.24C436.888 111.547 435.288 110.667 433.848 109.6C432.408 108.48 431.262 107.093 430.408 105.44C429.555 103.733 429.128 101.653 429.128 99.1999C429.128 95.9466 429.928 93.2266 431.528 91.0399C433.182 88.8532 435.342 87.1999 438.008 86.0799C440.728 84.9599 443.635 84.3999 446.728 84.3999C451.582 84.3999 455.795 85.4666 459.368 87.5999C462.942 89.6799 465.528 92.7466 467.128 96.7999L462.008 100.88C460.782 97.1466 458.808 94.4532 456.088 92.7999C453.422 91.0932 450.248 90.2399 446.568 90.2399C444.488 90.2399 442.622 90.5866 440.968 91.2799C439.315 91.9199 438.008 92.8799 437.048 94.1599C436.088 95.4399 435.608 96.9866 435.608 98.7999C435.608 101.573 436.515 103.627 438.328 104.96C440.195 106.293 442.755 107.36 446.008 108.16L452.168 109.68C454.142 110.16 456.062 110.747 457.928 111.44C459.848 112.133 461.555 113.04 463.048 114.16C464.542 115.28 465.715 116.693 466.568 118.4C467.475 120.107 467.928 122.24 467.928 124.8C467.928 127.893 467.128 130.533 465.528 132.72C463.982 134.907 461.848 136.587 459.128 137.76C456.462 138.88 453.422 139.44 450.008 139.44Z" fill="#282828"/>
<path d="M395.767 138.72H389.687V85.1196H395.767V138.72ZM426.007 138.72H391.767V133.28H426.007V138.72ZM420.807 114H391.767V108.64H420.807V114ZM426.007 90.5596H391.767V85.1196H426.007V90.5596Z" fill="#282828"/>
<path d="M356.163 139.36C351.416 139.36 347.389 138.213 344.083 135.92C340.829 133.573 338.349 130.346 336.643 126.24C334.989 122.08 334.163 117.28 334.163 111.84C334.163 106.56 335.123 101.84 337.043 97.6798C338.963 93.5198 341.736 90.2665 345.363 87.9198C349.043 85.5198 353.523 84.3198 358.803 84.3198C362.589 84.3198 365.949 84.9598 368.883 86.2398C371.869 87.5198 374.403 89.3332 376.483 91.6798C378.616 94.0265 380.216 96.8798 381.283 100.24L375.923 103.76C375.283 101.146 374.243 98.8265 372.803 96.7998C371.363 94.7198 369.496 93.0932 367.203 91.9198C364.909 90.6932 362.136 90.0798 358.883 90.0798C354.776 90.0798 351.363 91.0132 348.643 92.8798C345.923 94.7465 343.896 97.3065 342.563 100.56C341.229 103.813 340.563 107.573 340.563 111.84C340.563 116.053 341.203 119.813 342.483 123.12C343.816 126.373 345.763 128.933 348.323 130.8C350.936 132.666 354.216 133.6 358.163 133.6C361.736 133.6 364.643 132.96 366.883 131.68C369.176 130.346 370.963 128.453 372.243 126C373.523 123.493 374.509 120.533 375.203 117.12H376.163L375.843 117.52C375.629 121.68 374.749 125.413 373.203 128.72C371.656 131.973 369.443 134.56 366.563 136.48C363.736 138.4 360.269 139.36 356.163 139.36ZM381.523 138.72H377.763L375.843 117.52H358.003V112.16H381.523V138.72Z" fill="#282828"/>
<path d="M292.245 138.72H286.165V85.1196H291.605L316.645 121.2L321.685 128.96L321.365 121.36V85.1196H327.445V138.72H322.005L296.245 101.76L291.925 95.1996L292.245 101.76V138.72Z" fill="#282828"/>
<path d="M251.226 138.72H245.146V85.1196H251.226V138.72ZM281.466 138.72H247.226V133.28H281.466V138.72ZM276.266 114H247.226V108.64H276.266V114ZM281.466 90.5596H247.226V85.1196H281.466V90.5596Z" fill="#282828"/>
<path d="M214.817 138.72H208.737V85.1196H214.817V138.72ZM243.297 138.72H210.817V133.28H243.297V138.72Z" fill="#282828"/>
<path d="M178.408 138.72H172.328V85.1196H178.408V138.72ZM206.888 138.72H174.408V133.28H206.888V138.72Z" fill="#282828"/>
<path d="M128.044 138.72H121.564L143.164 85.1196H149.244L170.844 138.72H164.044L148.844 99.6796L146.044 91.3596L143.324 99.6796L128.044 138.72ZM160.364 123.04H131.644V117.6H160.364V123.04Z" fill="#282828"/>
<path d="M120.086 138.72H114.006V85.1196H120.086V138.72ZM84.8857 138.72H78.8057V85.1196H84.8857V138.72ZM117.126 114H80.8857V108.64H117.126V114Z" fill="#282828"/>
<path d="M49.8 139.36C44.4667 139.36 39.96 138.16 36.28 135.76C32.6 133.306 29.8 130 27.88 125.84C25.96 121.68 25 117.013 25 111.84C25 106.613 25.96 101.946 27.88 97.8398C29.8 93.6798 32.6 90.3998 36.28 87.9998C39.96 85.5465 44.4667 84.3198 49.8 84.3198C53.8533 84.3198 57.4267 85.0398 60.52 86.4798C63.6133 87.8665 66.2 89.8665 68.28 92.4798C70.4133 95.0932 72.0133 98.2132 73.08 101.84L67.72 105.36C67.08 102.32 66.0133 99.6532 64.52 97.3598C63.08 95.0665 61.16 93.2798 58.76 91.9998C56.36 90.7198 53.4 90.0798 49.88 90.0798C45.72 90.0798 42.28 91.0132 39.56 92.8798C36.84 94.7465 34.7867 97.3065 33.4 100.56C32.0667 103.813 31.4 107.573 31.4 111.84C31.4 116.053 32.0667 119.813 33.4 123.12C34.7867 126.373 36.84 128.933 39.56 130.8C42.28 132.666 45.72 133.6 49.88 133.6C53.4 133.6 56.36 132.96 58.76 131.68C61.16 130.4 63.08 128.613 64.52 126.32C66.0133 123.973 67.08 121.306 67.72 118.32L73.08 121.84C72.0133 125.413 70.4133 128.533 68.28 131.2C66.2 133.813 63.6133 135.84 60.52 137.28C57.4267 138.666 53.8533 139.36 49.8 139.36Z" fill="#282828"/>
<path d="M275.118 50.4398H270.798L249.918 15.7998H257.358L267.758 33.6398L272.958 44.3598L278.398 33.7198L289.198 15.7998H295.998L275.118 50.4398ZM275.998 69.3998H269.918V46.7598H275.998V69.3998Z" fill="#282828"/>
<path d="M227.549 70.2C223.709 70.2 220.216 69.5067 217.069 68.12C213.922 66.68 211.202 64.7067 208.909 62.2C206.669 59.6933 204.936 56.76 203.709 53.4C202.482 50.04 201.869 46.4133 201.869 42.52C201.869 38.68 202.482 35.1067 203.709 31.8C204.936 28.44 206.669 25.5067 208.909 23C211.202 20.4933 213.922 18.5467 217.069 17.16C220.216 15.72 223.709 15 227.549 15C231.389 15 234.882 15.72 238.029 17.16C241.176 18.5467 243.869 20.4933 246.109 23C248.402 25.5067 250.162 28.44 251.389 31.8C252.616 35.1067 253.229 38.68 253.229 42.52C253.229 46.4133 252.616 50.04 251.389 53.4C250.162 56.76 248.402 59.6933 246.109 62.2C243.869 64.7067 241.176 66.68 238.029 68.12C234.882 69.5067 231.389 70.2 227.549 70.2ZM227.629 64.44C231.789 64.44 235.282 63.5067 238.109 61.64C240.989 59.72 243.176 57.1067 244.669 53.8C246.162 50.4933 246.909 46.7333 246.909 42.52C246.909 38.3067 246.162 34.5733 244.669 31.32C243.176 28.0667 240.989 25.5067 238.109 23.64C235.282 21.72 231.789 20.76 227.629 20.76C223.469 20.76 219.949 21.72 217.069 23.64C214.189 25.5067 212.002 28.0667 210.509 31.32C209.016 34.5733 208.269 38.3067 208.269 42.52C208.269 46.7333 209.016 50.4933 210.509 53.8C212.002 57.1067 214.189 59.72 217.069 61.64C219.949 63.5067 223.469 64.44 227.629 64.44Z" fill="#282828"/>
<path d="M177.411 70.1998C171.757 70.1998 167.224 68.4931 163.811 65.0798C160.397 61.6665 158.424 57.1065 157.891 51.3998L163.331 47.7198C163.491 52.7331 164.717 56.7865 167.011 59.8798C169.357 62.9198 172.851 64.4398 177.491 64.4398C180.477 64.4398 182.851 63.9331 184.611 62.9198C186.371 61.9065 187.624 60.1998 188.371 57.7998C189.171 55.3998 189.571 52.1731 189.571 48.1198V15.7998H195.651V49.0798C195.651 54.1465 195.011 58.2265 193.731 61.3198C192.451 64.4131 190.451 66.6798 187.731 68.1198C185.064 69.5065 181.624 70.1998 177.411 70.1998Z" fill="#282828"/>
<path d="M119.871 69.3998H113.791V15.7998H119.231L144.271 51.8798L149.311 59.6398L148.991 52.0398V15.7998H155.071V69.3998H149.631L123.871 32.4398L119.551 25.8798L119.871 32.4398V69.3998Z" fill="#282828"/>
<path d="M78.8515 69.3998H72.7715V15.7998H78.8515V69.3998ZM109.091 69.3998H74.8515V63.9598H109.091V69.3998ZM103.891 44.6798H74.8515V39.3198H103.891V44.6798ZM109.091 21.2398H74.8515V15.7998H109.091V21.2398Z" fill="#282828"/>
<path d="M49.08 69.3998H43V15.7998H49.08V69.3998Z" fill="#282828"/>
</svg>
