<svg width="367" height="155" viewBox="0 0 367 155" fill="none" xmlns="http://www.w3.org/2000/svg">
<path d="M293 0C316.196 0 335 18.804 335 42V43C335 51.0574 332.729 58.5832 328.795 64.976C327.478 67.1154 328.867 70.2033 331.341 70.6394C351.037 74.1112 366 91.3081 366 112V113C366 136.196 347.196 155 324 155H90C66.804 155 48 136.196 48 113V112C48 104.028 50.2225 96.5753 54.0805 90.2262C55.4042 88.0477 53.9413 85 51.3921 85H42C18.804 85 1.61086e-08 66.196 0 43V42C0 18.804 18.804 1.02276e-06 42 0H293Z" fill="#282828"/>
<path d="M323.439 139.84C320.186 139.84 317.039 139.386 313.999 138.48C310.959 137.573 308.292 136.106 305.999 134.08C303.759 132 302.052 129.306 300.879 126L305.519 122C306.372 124.986 307.759 127.36 309.679 129.12C311.652 130.88 313.866 132.16 316.319 132.96C318.826 133.76 321.199 134.16 323.439 134.16C325.572 134.16 327.519 133.866 329.279 133.28C331.039 132.693 332.452 131.76 333.519 130.48C334.586 129.146 335.119 127.44 335.119 125.36C335.119 123.28 334.639 121.626 333.679 120.4C332.719 119.173 331.332 118.186 329.519 117.44C327.706 116.693 325.519 116.026 322.959 115.44L317.519 114.24C315.706 113.813 313.892 113.28 312.079 112.64C310.319 111.946 308.719 111.066 307.279 110C305.839 108.88 304.692 107.493 303.839 105.84C302.986 104.133 302.559 102.053 302.559 99.5998C302.559 96.3465 303.359 93.6265 304.959 91.4398C306.612 89.2531 308.772 87.5998 311.439 86.4798C314.159 85.3598 317.066 84.7998 320.159 84.7998C325.012 84.7998 329.226 85.8665 332.799 87.9998C336.372 90.0798 338.959 93.1465 340.559 97.1998L335.439 101.28C334.212 97.5465 332.239 94.8531 329.519 93.1998C326.852 91.4931 323.679 90.6398 319.999 90.6398C317.919 90.6398 316.052 90.9865 314.399 91.6798C312.746 92.3198 311.439 93.2798 310.479 94.5598C309.519 95.8398 309.039 97.3865 309.039 99.1998C309.039 101.973 309.946 104.026 311.759 105.36C313.626 106.693 316.186 107.76 319.439 108.56L325.599 110.08C327.572 110.56 329.492 111.146 331.359 111.84C333.279 112.533 334.986 113.44 336.479 114.56C337.972 115.68 339.146 117.093 339.999 118.8C340.906 120.506 341.359 122.64 341.359 125.2C341.359 128.293 340.559 130.933 338.959 133.12C337.412 135.306 335.279 136.986 332.559 138.16C329.892 139.28 326.852 139.84 323.439 139.84Z" fill="#F0F4F1"/>
<path d="M271.75 139.12H255.51V133.68H270.79C275.057 133.68 278.657 132.986 281.59 131.6C284.577 130.16 286.843 127.893 288.39 124.8C289.937 121.653 290.71 117.493 290.71 112.32C290.71 107.146 289.937 103.013 288.39 99.9195C286.843 96.7729 284.577 94.5062 281.59 93.1195C278.657 91.6795 275.057 90.9595 270.79 90.9595H255.51V85.5195H271.75C277.404 85.5195 282.097 86.5862 285.83 88.7195C289.564 90.7995 292.363 93.8395 294.23 97.8395C296.097 101.84 297.03 106.666 297.03 112.32C297.03 117.973 296.097 122.8 294.23 126.8C292.363 130.8 289.564 133.866 285.83 136C282.097 138.08 277.404 139.12 271.75 139.12ZM259.51 139.12H253.43V85.5195H259.51V139.12Z" fill="#F0F4F1"/>
<path d="M207.632 139.12H201.552V85.5195H206.992L232.032 121.6L237.072 129.36L236.752 121.76V85.5195H242.832V139.12H237.392L211.632 102.16L207.312 95.5995L207.632 102.16V139.12Z" fill="#F0F4F1"/>
<path d="M166.613 139.12H160.533V85.5195H166.613V139.12ZM196.853 139.12H162.613V133.68H196.853V139.12ZM191.653 114.4H162.613V109.04H191.653V114.4ZM196.853 90.9595H162.613V85.5195H196.853V90.9595Z" fill="#F0F4F1"/>
<path d="M137.878 117.36H116.438V112.24H136.198C138.545 112.24 140.678 111.92 142.598 111.28C144.572 110.586 146.118 109.493 147.238 108C148.412 106.453 148.998 104.373 148.998 101.76C148.998 99.0395 148.412 96.9062 147.238 95.3595C146.065 93.7595 144.492 92.6395 142.518 91.9995C140.598 91.3062 138.465 90.9595 136.118 90.9595H116.438V85.5195H137.078C140.598 85.5195 143.718 86.1595 146.438 87.4395C149.158 88.6662 151.292 90.4795 152.838 92.8795C154.438 95.2795 155.238 98.2395 155.238 101.76C155.238 104.96 154.492 107.706 152.998 110C151.558 112.24 149.532 113.973 146.918 115.2C144.305 116.373 141.292 116.96 137.878 116.96V117.36ZM120.438 139.12H114.358V85.5195H120.438V139.12ZM156.758 139.12H149.558L139.958 122.48C138.945 120.666 137.612 119.36 135.958 118.56C134.358 117.76 132.225 117.36 129.558 117.36L137.718 116.24C139.105 116.346 140.332 116.64 141.398 117.12C142.465 117.6 143.452 118.266 144.358 119.12C145.318 119.973 146.198 121.093 146.998 122.48L156.758 139.12Z" fill="#F0F4F1"/>
<path d="M96.28 139.12H90.2V85.5195H96.28V139.12ZM113.48 90.9595H73V85.5195H113.48V90.9595Z" fill="#F0F4F1"/>
<path d="M260.495 69.3998H253.375L238.255 15.7998H245.295L254.415 51.0798L256.895 63.6398L259.935 51.2398L270.495 15.7998H278.255L288.575 51.2398L291.615 63.6398L294.175 51.0798L303.455 15.7998H310.255L294.975 69.3998H287.855L277.375 33.1598L274.255 20.9198L271.135 33.1598L260.495 69.3998Z" fill="#F0F4F1"/>
<path d="M212.827 70.2C208.987 70.2 205.494 69.5067 202.347 68.12C199.201 66.68 196.481 64.7067 194.187 62.2C191.947 59.6933 190.214 56.76 188.987 53.4C187.761 50.04 187.147 46.4133 187.147 42.52C187.147 38.68 187.761 35.1067 188.987 31.8C190.214 28.44 191.947 25.5067 194.187 23C196.481 20.4933 199.201 18.5467 202.347 17.16C205.494 15.72 208.987 15 212.827 15C216.667 15 220.161 15.72 223.307 17.16C226.454 18.5467 229.147 20.4933 231.387 23C233.681 25.5067 235.441 28.44 236.667 31.8C237.894 35.1067 238.507 38.68 238.507 42.52C238.507 46.4133 237.894 50.04 236.667 53.4C235.441 56.76 233.681 59.6933 231.387 62.2C229.147 64.7067 226.454 66.68 223.307 68.12C220.161 69.5067 216.667 70.2 212.827 70.2ZM212.907 64.44C217.067 64.44 220.561 63.5067 223.387 61.64C226.267 59.72 228.454 57.1067 229.947 53.8C231.441 50.4933 232.187 46.7333 232.187 42.52C232.187 38.3067 231.441 34.5733 229.947 31.32C228.454 28.0667 226.267 25.5067 223.387 23.64C220.561 21.72 217.067 20.76 212.907 20.76C208.747 20.76 205.227 21.72 202.347 23.64C199.467 25.5067 197.281 28.0667 195.787 31.32C194.294 34.5733 193.547 38.3067 193.547 42.52C193.547 46.7333 194.294 50.4933 195.787 53.8C197.281 57.1067 199.467 59.72 202.347 61.64C205.227 63.5067 208.747 64.44 212.907 64.44Z" fill="#F0F4F1"/>
<path d="M161.636 69.3998H155.556V15.7998H161.636V69.3998ZM190.116 69.3998H157.636V63.9598H190.116V69.3998Z" fill="#F0F4F1"/>
<path d="M125.226 69.3998H119.146V15.7998H125.226V69.3998ZM153.706 69.3998H121.226V63.9598H153.706V69.3998Z" fill="#F0F4F1"/>
<path d="M86.7239 70.2C82.8839 70.2 79.3906 69.5067 76.2439 68.12C73.0973 66.68 70.3773 64.7067 68.0839 62.2C65.8439 59.6933 64.1106 56.76 62.8839 53.4C61.6573 50.04 61.0439 46.4133 61.0439 42.52C61.0439 38.68 61.6573 35.1067 62.8839 31.8C64.1106 28.44 65.8439 25.5067 68.0839 23C70.3773 20.4933 73.0973 18.5467 76.2439 17.16C79.3906 15.72 82.8839 15 86.7239 15C90.5639 15 94.0573 15.72 97.2039 17.16C100.351 18.5467 103.044 20.4933 105.284 23C107.577 25.5067 109.337 28.44 110.564 31.8C111.791 35.1067 112.404 38.68 112.404 42.52C112.404 46.4133 111.791 50.04 110.564 53.4C109.337 56.76 107.577 59.6933 105.284 62.2C103.044 64.7067 100.351 66.68 97.2039 68.12C94.0573 69.5067 90.5639 70.2 86.7239 70.2ZM86.8039 64.44C90.9639 64.44 94.4573 63.5067 97.2839 61.64C100.164 59.72 102.351 57.1067 103.844 53.8C105.337 50.4933 106.084 46.7333 106.084 42.52C106.084 38.3067 105.337 34.5733 103.844 31.32C102.351 28.0667 100.164 25.5067 97.2839 23.64C94.4573 21.72 90.9639 20.76 86.8039 20.76C82.6439 20.76 79.1239 21.72 76.2439 23.64C73.3639 25.5067 71.1773 28.0667 69.6839 31.32C68.1906 34.5733 67.4439 38.3067 67.4439 42.52C67.4439 46.7333 68.1906 50.4933 69.6839 53.8C71.1773 57.1067 73.3639 59.72 76.2439 61.64C79.1239 63.5067 82.6439 64.44 86.8039 64.44Z" fill="#F0F4F1"/>
<path d="M31.08 69.3998H25V15.7998H31.08V69.3998ZM55.48 46.9198H27.08V41.5598H55.48V46.9198ZM60.68 21.2398H27.08V15.7998H60.68V21.2398Z" fill="#F0F4F1"/>
</svg>
