<svg width="406" height="184" viewBox="0 0 406 184" fill="none" xmlns="http://www.w3.org/2000/svg">
<path d="M202.5 0.5C258.364 0.5 308.916 10.7884 345.482 27.4014C382.094 44.0349 404.5 66.9117 404.5 92C404.5 117.088 382.094 139.965 345.482 156.599C308.916 173.212 258.364 183.5 202.5 183.5C146.636 183.5 96.0842 173.212 59.5176 156.599C22.9058 139.965 0.5 117.088 0.5 92C0.5 66.9117 22.9058 44.0349 59.5176 27.4014C96.0842 10.7884 146.636 0.5 202.5 0.5Z" fill="#F0F4F1" stroke="#282828"/>
<path d="M345.281 144.4H337.921V134.48H345.281V144.4Z" fill="#282828"/>
<path d="M332.622 144.4H325.262V134.48H332.622V144.4Z" fill="#282828"/>
<path d="M302.421 145.12C299.168 145.12 296.021 144.667 292.981 143.76C289.941 142.853 287.274 141.387 284.981 139.36C282.741 137.28 281.034 134.587 279.861 131.28L284.501 127.28C285.354 130.267 286.741 132.64 288.661 134.4C290.634 136.16 292.848 137.44 295.301 138.24C297.808 139.04 300.181 139.44 302.421 139.44C304.554 139.44 306.501 139.147 308.261 138.56C310.021 137.973 311.434 137.04 312.501 135.76C313.568 134.427 314.101 132.72 314.101 130.64C314.101 128.56 313.621 126.907 312.661 125.68C311.701 124.453 310.314 123.467 308.501 122.72C306.688 121.973 304.501 121.307 301.941 120.72L296.501 119.52C294.688 119.093 292.874 118.56 291.061 117.92C289.301 117.227 287.701 116.347 286.261 115.28C284.821 114.16 283.674 112.773 282.821 111.12C281.968 109.413 281.541 107.333 281.541 104.88C281.541 101.627 282.341 98.9067 283.941 96.7201C285.594 94.5334 287.754 92.8801 290.421 91.7601C293.141 90.6401 296.048 90.0801 299.141 90.0801C303.994 90.0801 308.208 91.1467 311.781 93.2801C315.354 95.3601 317.941 98.4267 319.541 102.48L314.421 106.56C313.194 102.827 311.221 100.133 308.501 98.4801C305.834 96.7734 302.661 95.9201 298.981 95.9201C296.901 95.9201 295.034 96.2667 293.381 96.9601C291.728 97.6001 290.421 98.5601 289.461 99.8401C288.501 101.12 288.021 102.667 288.021 104.48C288.021 107.253 288.928 109.307 290.741 110.64C292.608 111.973 295.168 113.04 298.421 113.84L304.581 115.36C306.554 115.84 308.474 116.427 310.341 117.12C312.261 117.813 313.968 118.72 315.461 119.84C316.954 120.96 318.127 122.373 318.981 124.08C319.887 125.787 320.341 127.92 320.341 130.48C320.341 133.573 319.541 136.213 317.941 138.4C316.394 140.587 314.261 142.267 311.541 143.44C308.874 144.56 305.834 145.12 302.421 145.12Z" fill="#282828"/>
<path d="M273.883 144.4H267.803V90.7998H273.883V144.4Z" fill="#282828"/>
<path d="M219.814 144.4H213.734V90.7998H219.814V144.4ZM248.294 144.4H215.814V138.96H248.294V144.4Z" fill="#282828"/>
<path d="M169.451 144.4H162.971L184.571 90.7998H190.651L212.251 144.4H205.451L190.251 105.36L187.451 97.0398L184.731 105.36L169.451 144.4ZM201.771 128.72H173.051V123.28H201.771V128.72Z" fill="#282828"/>
<path d="M137.949 145.2C134.109 145.2 130.615 144.507 127.469 143.12C124.322 141.68 121.602 139.707 119.309 137.2C117.069 134.693 115.335 131.76 114.109 128.4C112.882 125.04 112.269 121.413 112.269 117.52C112.269 113.68 112.882 110.107 114.109 106.8C115.335 103.44 117.069 100.507 119.309 98C121.602 95.4933 124.322 93.5467 127.469 92.16C130.615 90.72 134.109 90 137.949 90C141.789 90 145.282 90.72 148.429 92.16C151.575 93.5467 154.269 95.4933 156.509 98C158.802 100.507 160.562 103.44 161.789 106.8C163.015 110.107 163.629 113.68 163.629 117.52C163.629 121.413 163.015 125.04 161.789 128.4C160.562 131.76 158.802 134.693 156.509 137.2C154.269 139.707 151.575 141.68 148.429 143.12C145.282 144.507 141.789 145.2 137.949 145.2ZM138.029 139.44C142.189 139.44 145.682 138.507 148.509 136.64C151.389 134.72 153.575 132.107 155.069 128.8C156.562 125.493 157.309 121.733 157.309 117.52C157.309 113.307 156.562 109.573 155.069 106.32C153.575 103.067 151.389 100.507 148.509 98.64C145.682 96.72 142.189 95.76 138.029 95.76C133.869 95.76 130.349 96.72 127.469 98.64C124.589 100.507 122.402 103.067 120.909 106.32C119.415 109.573 118.669 113.307 118.669 117.52C118.669 121.733 119.415 125.493 120.909 128.8C122.402 132.107 124.589 134.72 127.469 136.64C130.349 138.507 133.869 139.44 138.029 139.44Z" fill="#282828"/>
<path d="M82 145.04C77.2533 145.04 73.2267 143.893 69.92 141.6C66.6667 139.253 64.1867 136.027 62.48 131.92C60.8267 127.76 60 122.96 60 117.52C60 112.24 60.96 107.52 62.88 103.36C64.8 99.2 67.5733 95.9467 71.2 93.6C74.88 91.2 79.36 90 84.64 90C88.4267 90 91.7867 90.64 94.72 91.92C97.7067 93.2 100.24 95.0133 102.32 97.36C104.453 99.7067 106.053 102.56 107.12 105.92L101.76 109.44C101.12 106.827 100.08 104.507 98.64 102.48C97.2 100.4 95.3333 98.7733 93.04 97.6C90.7467 96.3733 87.9733 95.76 84.72 95.76C80.6133 95.76 77.2 96.6933 74.48 98.56C71.76 100.427 69.7333 102.987 68.4 106.24C67.0667 109.493 66.4 113.253 66.4 117.52C66.4 121.733 67.04 125.493 68.32 128.8C69.6533 132.053 71.6 134.613 74.16 136.48C76.7733 138.347 80.0533 139.28 84 139.28C87.5733 139.28 90.48 138.64 92.72 137.36C95.0133 136.027 96.8 134.133 98.08 131.68C99.36 129.173 100.347 126.213 101.04 122.8H102L101.68 123.2C101.467 127.36 100.587 131.093 99.04 134.4C97.4933 137.653 95.28 140.24 92.4 142.16C89.5733 144.08 86.1067 145.04 82 145.04ZM107.36 144.4H103.6L101.68 123.2H83.84V117.84H107.36V144.4Z" fill="#282828"/>
<path d="M231.587 55.64H227.267L206.387 21H213.827L224.227 38.84L229.427 49.56L234.867 38.92L245.667 21H252.467L231.587 55.64ZM232.467 74.6H226.387V51.96H232.467V74.6Z" fill="#282828"/>
<path d="M159.08 74.6H153V21H159.8L174.52 48.84L179.56 59.64L184.6 48.84L199.32 21H206.12V74.6H200.04V42.68L200.6 29.48L195.16 41.64L182.52 65.24H176.6L163.96 41.64L158.36 29.48L159.08 42.68V74.6Z" fill="#282828"/>
</svg>
