<svg width="496" height="155" viewBox="0 0 496 155" fill="none" xmlns="http://www.w3.org/2000/svg">
<path d="M42 0.5H401C423.92 0.5 442.5 19.0802 442.5 42V43C442.5 50.51 440.505 57.5528 437.018 63.6289C436.301 64.8782 436.368 66.3403 436.962 67.4844C437.558 68.6322 438.708 69.4999 440.176 69.5H453C475.92 69.5 494.5 88.0802 494.5 111V112C494.5 134.92 475.92 153.5 453 153.5H60C37.0802 153.5 18.5 134.92 18.5 112V111C18.5 101.945 21.4002 93.5696 26.3213 86.748C27.773 84.7355 26.9892 81.7785 24.7344 80.7451C10.4335 74.1932 0.5 59.7573 0.5 43V42C0.5 19.0802 19.0802 0.5 42 0.5Z" fill="#F0F4F1" stroke="#282828"/>
<path d="M449.431 119.76H445.111L424.231 85.1196H431.671L442.071 102.96L447.271 113.68L452.711 103.04L463.511 85.1196H470.311L449.431 119.76ZM450.311 138.72H444.231V116.08H450.311V138.72Z" fill="#282828"/>
<path d="M410.346 138.72H404.266V85.1196H410.346V138.72ZM427.546 90.5596H387.066V85.1196H427.546V90.5596Z" fill="#282828"/>
<path d="M386.139 138.72H380.059V85.1196H386.139V138.72Z" fill="#282828"/>
<path d="M349.73 138.72H343.65V85.1196H349.73V138.72ZM378.21 138.72H345.73V133.28H378.21V138.72Z" fill="#282828"/>
<path d="M299.367 138.72H292.887L314.487 85.1196H320.567L342.167 138.72H335.367L320.167 99.6796L317.367 91.3596L314.647 99.6796L299.367 138.72ZM331.687 123.04H302.967V117.6H331.687V123.04Z" fill="#282828"/>
<path d="M264.099 138.72H258.019V85.1196H264.099V138.72ZM294.339 138.72H260.099V133.28H294.339V138.72ZM289.139 114H260.099V108.64H289.139V114ZM294.339 90.5596H260.099V85.1196H294.339V90.5596Z" fill="#282828"/>
<path d="M235.364 116.96H213.924V111.84H233.684C236.03 111.84 238.164 111.52 240.084 110.88C242.057 110.186 243.604 109.093 244.724 107.6C245.897 106.053 246.484 103.973 246.484 101.36C246.484 98.6396 245.897 96.5063 244.724 94.9596C243.55 93.3596 241.977 92.2396 240.004 91.5996C238.084 90.9063 235.95 90.5596 233.604 90.5596H213.924V85.1196H234.564C238.084 85.1196 241.204 85.7596 243.924 87.0396C246.644 88.2663 248.777 90.0796 250.324 92.4796C251.924 94.8796 252.724 97.8396 252.724 101.36C252.724 104.56 251.977 107.306 250.484 109.6C249.044 111.84 247.017 113.573 244.404 114.8C241.79 115.973 238.777 116.56 235.364 116.56V116.96ZM217.924 138.72H211.844V85.1196H217.924V138.72ZM254.244 138.72H247.044L237.444 122.08C236.43 120.266 235.097 118.96 233.444 118.16C231.844 117.36 229.71 116.96 227.044 116.96L235.204 115.84C236.59 115.946 237.817 116.24 238.884 116.72C239.95 117.2 240.937 117.866 241.844 118.72C242.804 119.573 243.684 120.693 244.484 122.08L254.244 138.72Z" fill="#282828"/>
<path d="M164.73 139.52C160.89 139.52 157.397 138.826 154.25 137.44C151.104 136 148.384 134.026 146.09 131.52C143.85 129.013 142.117 126.08 140.89 122.72C139.664 119.36 139.05 115.733 139.05 111.84C139.05 108 139.664 104.426 140.89 101.12C142.117 97.7598 143.85 94.8265 146.09 92.3198C148.384 89.8132 151.104 87.8665 154.25 86.4798C157.397 85.0398 160.89 84.3198 164.73 84.3198C168.57 84.3198 172.064 85.0398 175.21 86.4798C178.357 87.8665 181.05 89.8132 183.29 92.3198C185.584 94.8265 187.344 97.7598 188.57 101.12C189.797 104.426 190.41 108 190.41 111.84C190.41 115.733 189.797 119.36 188.57 122.72C187.344 126.08 185.584 129.013 183.29 131.52C181.05 134.026 178.357 136 175.21 137.44C172.064 138.826 168.57 139.52 164.73 139.52ZM164.81 133.76C168.97 133.76 172.464 132.826 175.29 130.96C178.17 129.04 180.357 126.426 181.85 123.12C183.344 119.813 184.09 116.053 184.09 111.84C184.09 107.626 183.344 103.893 181.85 100.64C180.357 97.3865 178.17 94.8265 175.29 92.9598C172.464 91.0398 168.97 90.0798 164.81 90.0798C160.65 90.0798 157.13 91.0398 154.25 92.9598C151.37 94.8265 149.184 97.3865 147.69 100.64C146.197 103.893 145.45 107.626 145.45 111.84C145.45 116.053 146.197 119.813 147.69 123.12C149.184 126.426 151.37 129.04 154.25 130.96C157.13 132.826 160.65 133.76 164.81 133.76Z" fill="#282828"/>
<path d="M125.165 138.72H119.085V85.1196H125.165V138.72ZM142.365 90.5596H101.885V85.1196H142.365V90.5596Z" fill="#282828"/>
<path d="M65.8017 138.72H59.7217V85.1196H65.1617L90.2017 121.2L95.2417 128.96L94.9217 121.36V85.1196H101.002V138.72H95.5617L69.8017 101.76L65.4817 95.1996L65.8017 101.76V138.72Z" fill="#282828"/>
<path d="M49.08 138.72H43V85.1196H49.08V138.72Z" fill="#282828"/>
<path d="M400.15 70.04C396.897 70.04 393.75 69.5867 390.71 68.68C387.67 67.7733 385.004 66.3067 382.71 64.28C380.47 62.2 378.764 59.5067 377.59 56.2L382.23 52.2C383.084 55.1867 384.47 57.56 386.39 59.32C388.364 61.08 390.577 62.36 393.03 63.16C395.537 63.96 397.91 64.36 400.15 64.36C402.284 64.36 404.23 64.0667 405.99 63.48C407.75 62.8933 409.164 61.96 410.23 60.68C411.297 59.3467 411.83 57.64 411.83 55.56C411.83 53.48 411.35 51.8267 410.39 50.6C409.43 49.3733 408.044 48.3867 406.23 47.64C404.417 46.8933 402.23 46.2267 399.67 45.64L394.23 44.44C392.417 44.0133 390.604 43.48 388.79 42.84C387.03 42.1467 385.43 41.2667 383.99 40.2C382.55 39.08 381.404 37.6933 380.55 36.04C379.697 34.3333 379.27 32.2533 379.27 29.8C379.27 26.5467 380.07 23.8267 381.67 21.64C383.324 19.4533 385.484 17.8 388.15 16.68C390.87 15.56 393.777 15 396.87 15C401.724 15 405.937 16.0667 409.51 18.2C413.084 20.28 415.67 23.3467 417.27 27.4L412.15 31.48C410.924 27.7467 408.95 25.0533 406.23 23.4C403.564 21.6933 400.39 20.84 396.71 20.84C394.63 20.84 392.764 21.1867 391.11 21.88C389.457 22.52 388.15 23.48 387.19 24.76C386.23 26.04 385.75 27.5867 385.75 29.4C385.75 32.1733 386.657 34.2267 388.47 35.56C390.337 36.8933 392.897 37.96 396.15 38.76L402.31 40.28C404.284 40.76 406.204 41.3467 408.07 42.04C409.99 42.7333 411.697 43.64 413.19 44.76C414.684 45.88 415.857 47.2933 416.71 49C417.617 50.7067 418.07 52.84 418.07 55.4C418.07 58.4933 417.27 61.1333 415.67 63.32C414.124 65.5067 411.99 67.1867 409.27 68.36C406.604 69.48 403.564 70.04 400.15 70.04Z" fill="#282828"/>
<path d="M335.783 69.3197H329.303L350.903 15.7197H356.983L378.583 69.3197H371.783L356.583 30.2797L353.783 21.9597L351.063 30.2797L335.783 69.3197ZM368.103 53.6397H339.383V48.1997H368.103V53.6397Z" fill="#282828"/>
<path d="M300.515 69.3197H294.435V15.7197H300.515V69.3197ZM330.755 69.3197H296.515V63.8797H330.755V69.3197ZM325.555 44.5997H296.515V39.2397H325.555V44.5997ZM330.755 21.1597H296.515V15.7197H330.755V21.1597Z" fill="#282828"/>
<path d="M262.44 69.3197H246.2V63.8797H261.48C265.746 63.8797 269.346 63.1864 272.28 61.7997C275.266 60.3597 277.533 58.0931 279.08 54.9997C280.626 51.8531 281.4 47.6931 281.4 42.5197C281.4 37.3464 280.626 33.2131 279.08 30.1197C277.533 26.9731 275.266 24.7064 272.28 23.3197C269.346 21.8797 265.746 21.1597 261.48 21.1597H246.2V15.7197H262.44C268.093 15.7197 272.786 16.7864 276.52 18.9197C280.253 20.9997 283.053 24.0397 284.92 28.0397C286.786 32.0397 287.72 36.8664 287.72 42.5197C287.72 48.1731 286.786 52.9997 284.92 56.9997C283.053 60.9997 280.253 64.0664 276.52 66.1997C272.786 68.2797 268.093 69.3197 262.44 69.3197ZM250.2 69.3197H244.12V15.7197H250.2V69.3197Z" fill="#282828"/>
<path d="M233.478 69.3197H227.398V15.7197H233.478V69.3197Z" fill="#282828"/>
<path d="M168.55 69.3197H162.47V15.7197H167.91L192.95 51.7997L197.99 59.5597L197.67 51.9597V15.7197H203.75V69.3197H198.31L172.55 32.3597L168.23 25.7997L168.55 32.3597V69.3197Z" fill="#282828"/>
<path d="M139.814 47.5597H118.374V42.4397H138.134C140.481 42.4397 142.614 42.1197 144.534 41.4797C146.508 40.7864 148.054 39.6931 149.174 38.1997C150.348 36.6531 150.934 34.5731 150.934 31.9597C150.934 29.2397 150.348 27.1064 149.174 25.5597C148.001 23.9597 146.428 22.8397 144.454 22.1997C142.534 21.5064 140.401 21.1597 138.054 21.1597H118.374V15.7197H139.014C142.534 15.7197 145.654 16.3597 148.374 17.6397C151.094 18.8664 153.228 20.6797 154.774 23.0797C156.374 25.4797 157.174 28.4397 157.174 31.9597C157.174 35.1597 156.428 37.9064 154.934 40.1997C153.494 42.4397 151.468 44.1731 148.854 45.3997C146.241 46.5731 143.228 47.1597 139.814 47.1597V47.5597ZM122.374 69.3197H116.294V15.7197H122.374V69.3197ZM158.694 69.3197H151.494L141.894 52.6797C140.881 50.8664 139.548 49.5597 137.894 48.7597C136.294 47.9597 134.161 47.5597 131.494 47.5597L139.654 46.4397C141.041 46.5464 142.268 46.8397 143.334 47.3197C144.401 47.7997 145.388 48.4664 146.294 49.3197C147.254 50.1731 148.134 51.2931 148.934 52.6797L158.694 69.3197Z" fill="#282828"/>
<path d="M86.1986 70.1197C79.3186 70.1197 74.2252 68.2531 70.9186 64.5197C67.6652 60.7331 66.0386 54.8931 66.0386 46.9997V15.7197H72.1186V46.9997C72.1186 53.1331 73.2119 57.5597 75.3986 60.2797C77.5852 62.9997 81.2119 64.3597 86.2786 64.3597C91.4519 64.3597 95.1052 62.9997 97.2386 60.2797C99.3719 57.5597 100.439 53.1331 100.439 46.9997V15.7197H106.519V46.9997C106.519 54.8931 104.892 60.7331 101.639 64.5197C98.3852 68.2531 93.2386 70.1197 86.1986 70.1197Z" fill="#282828"/>
<path d="M48.76 69.3197H42.68V15.7197H48.76V69.3197ZM65.96 21.1597H25.48V15.7197H65.96V21.1597Z" fill="#282828"/>
</svg>
