<svg width="374" height="156" viewBox="0 0 374 156" fill="none" xmlns="http://www.w3.org/2000/svg">
<path d="M332 0C355.196 0 374 18.804 374 42V43C374 63.9684 358.634 81.3457 338.548 84.49C336.035 84.8834 334.579 88.0229 335.901 90.1957C339.771 96.5515 342 104.015 342 112V113C342 136.196 323.196 155 300 155H75C51.804 155 33 136.196 33 113V112C33 104.028 35.2225 96.5753 39.0805 90.2262C40.4042 88.0477 38.9361 84.8989 36.4157 84.5163C16.1268 81.4364 1.45988e-08 64.0218 0 43V42C0 18.804 18.804 0 42 0H332Z" fill="#282828"/>
<path d="M297.762 117.64H276.322V112.52H296.082C298.429 112.52 300.562 112.2 302.482 111.56C304.456 110.866 306.002 109.773 307.122 108.28C308.296 106.733 308.882 104.653 308.882 102.04C308.882 99.3198 308.296 97.1865 307.122 95.6398C305.949 94.0398 304.376 92.9198 302.402 92.2798C300.482 91.5865 298.349 91.2398 296.002 91.2398H276.322V85.7998H296.962C300.482 85.7998 303.602 86.4398 306.322 87.7198C309.042 88.9465 311.176 90.7598 312.722 93.1598C314.322 95.5598 315.122 98.5198 315.122 102.04C315.122 105.24 314.376 107.986 312.882 110.28C311.442 112.52 309.416 114.253 306.802 115.48C304.189 116.653 301.176 117.24 297.762 117.24V117.64ZM280.322 139.4H274.242V85.7998H280.322V139.4ZM316.642 139.4H309.442L299.842 122.76C298.829 120.946 297.496 119.64 295.842 118.84C294.242 118.04 292.109 117.64 289.442 117.64L297.602 116.52C298.989 116.626 300.216 116.92 301.282 117.4C302.349 117.88 303.336 118.546 304.242 119.4C305.202 120.253 306.082 121.373 306.882 122.76L316.642 139.4Z" fill="#F0F4F1"/>
<path d="M239.303 139.4H233.223V85.7998H239.303V139.4ZM269.543 139.4H235.303V133.96H269.543V139.4ZM264.343 114.68H235.303V109.32H264.343V114.68ZM269.543 91.2398H235.303V85.7998H269.543V91.2398Z" fill="#F0F4F1"/>
<path d="M211.598 139.4H205.518L185.198 85.7998H191.998L204.878 121.16L208.718 133.96L212.478 121.16L225.438 85.7998H231.918L211.598 139.4Z" fill="#F0F4F1"/>
<path d="M166.172 139.4H160.092V85.7998H166.172V139.4ZM194.652 139.4H162.172V133.96H194.652V139.4Z" fill="#F0F4F1"/>
<path d="M127.669 140.2C123.829 140.2 120.336 139.507 117.189 138.12C114.043 136.68 111.323 134.707 109.029 132.2C106.789 129.693 105.056 126.76 103.829 123.4C102.603 120.04 101.989 116.413 101.989 112.52C101.989 108.68 102.603 105.107 103.829 101.8C105.056 98.44 106.789 95.5067 109.029 93C111.323 90.4933 114.043 88.5467 117.189 87.16C120.336 85.72 123.829 85 127.669 85C131.509 85 135.003 85.72 138.149 87.16C141.296 88.5467 143.989 90.4933 146.229 93C148.523 95.5067 150.283 98.44 151.509 101.8C152.736 105.107 153.349 108.68 153.349 112.52C153.349 116.413 152.736 120.04 151.509 123.4C150.283 126.76 148.523 129.693 146.229 132.2C143.989 134.707 141.296 136.68 138.149 138.12C135.003 139.507 131.509 140.2 127.669 140.2ZM127.749 134.44C131.909 134.44 135.403 133.507 138.229 131.64C141.109 129.72 143.296 127.107 144.789 123.8C146.283 120.493 147.029 116.733 147.029 112.52C147.029 108.307 146.283 104.573 144.789 101.32C143.296 98.0667 141.109 95.5067 138.229 93.64C135.403 91.72 131.909 90.76 127.749 90.76C123.589 90.76 120.069 91.72 117.189 93.64C114.309 95.5067 112.123 98.0667 110.629 101.32C109.136 104.573 108.389 108.307 108.389 112.52C108.389 116.733 109.136 120.493 110.629 123.8C112.123 127.107 114.309 129.72 117.189 131.64C120.069 133.507 123.589 134.44 127.749 134.44Z" fill="#F0F4F1"/>
<path d="M80.56 140.12C77.3067 140.12 74.16 139.667 71.12 138.76C68.08 137.853 65.4133 136.387 63.12 134.36C60.88 132.28 59.1733 129.587 58 126.28L62.64 122.28C63.4933 125.267 64.88 127.64 66.8 129.4C68.7733 131.16 70.9867 132.44 73.44 133.24C75.9467 134.04 78.32 134.44 80.56 134.44C82.6933 134.44 84.64 134.147 86.4 133.56C88.16 132.973 89.5733 132.04 90.64 130.76C91.7067 129.427 92.24 127.72 92.24 125.64C92.24 123.56 91.76 121.907 90.8 120.68C89.84 119.453 88.4533 118.467 86.64 117.72C84.8267 116.973 82.64 116.307 80.08 115.72L74.64 114.52C72.8267 114.093 71.0133 113.56 69.2 112.92C67.44 112.227 65.84 111.347 64.4 110.28C62.96 109.16 61.8133 107.773 60.96 106.12C60.1067 104.413 59.68 102.333 59.68 99.8801C59.68 96.6267 60.48 93.9067 62.08 91.7201C63.7333 89.5334 65.8933 87.8801 68.56 86.7601C71.28 85.6401 74.1867 85.0801 77.28 85.0801C82.1333 85.0801 86.3467 86.1467 89.92 88.2801C93.4933 90.3601 96.08 93.4267 97.68 97.4801L92.56 101.56C91.3333 97.8267 89.36 95.1334 86.64 93.4801C83.9733 91.7734 80.8 90.9201 77.12 90.9201C75.04 90.9201 73.1733 91.2667 71.52 91.9601C69.8667 92.6001 68.56 93.5601 67.6 94.8401C66.64 96.1201 66.16 97.6667 66.16 99.4801C66.16 102.253 67.0667 104.307 68.88 105.64C70.7467 106.973 73.3067 108.04 76.56 108.84L82.72 110.36C84.6933 110.84 86.6133 111.427 88.48 112.12C90.4 112.813 92.1067 113.72 93.6 114.84C95.0933 115.96 96.2667 117.373 97.12 119.08C98.0267 120.787 98.48 122.92 98.48 125.48C98.48 128.573 97.68 131.213 96.08 133.4C94.5333 135.587 92.4 137.267 89.68 138.44C87.0133 139.56 83.9733 140.12 80.56 140.12Z" fill="#F0F4F1"/>
<path d="M301.802 69.3998H295.722V15.7998H302.522L317.242 43.6398L322.282 54.4398L327.322 43.6398L342.042 15.7998H348.842V69.3998H342.762V37.4798L343.322 24.2798L337.882 36.4398L325.242 60.0398H319.322L306.682 36.4398L301.082 24.2798L301.802 37.4798V69.3998Z" fill="#F0F4F1"/>
<path d="M260.783 69.3998H254.703V15.7998H260.783V69.3998ZM291.023 69.3998H256.783V63.9598H291.023V69.3998ZM285.823 44.6798H256.783V39.3198H285.823V44.6798ZM291.023 21.2398H256.783V15.7998H291.023V21.2398Z" fill="#F0F4F1"/>
<path d="M224.373 69.3998H218.293V15.7998H224.373V69.3998ZM252.853 69.3998H220.373V63.9598H252.853V69.3998Z" fill="#F0F4F1"/>
<path d="M193.023 69.3998H174.463V63.9598H191.983C196.41 63.9598 199.69 63.2131 201.823 61.7198C203.956 60.1731 205.023 57.6931 205.023 54.2798C205.023 51.9865 204.436 50.1465 203.263 48.7598C202.09 47.3198 200.516 46.2798 198.543 45.6398C196.57 44.9465 194.303 44.5998 191.743 44.5998H174.463V39.1598H190.943C193.236 39.1598 195.236 38.8931 196.943 38.3598C198.703 37.8265 200.09 36.9198 201.103 35.6398C202.116 34.3065 202.623 32.4931 202.623 30.1998C202.623 27.9065 202.116 26.1198 201.103 24.8398C200.09 23.5065 198.703 22.5731 196.943 22.0398C195.183 21.5065 193.156 21.2398 190.863 21.2398H174.463V15.7998H192.943C196.463 15.7998 199.396 16.3865 201.743 17.5598C204.09 18.6798 205.85 20.2798 207.023 22.3598C208.25 24.3865 208.863 26.7598 208.863 29.4798C208.863 30.8665 208.623 32.2265 208.143 33.5598C207.716 34.8931 206.996 36.1198 205.983 37.2398C204.97 38.3065 203.636 39.2131 201.983 39.9598C200.383 40.7065 198.41 41.2131 196.063 41.4798C199.85 41.8531 202.836 42.6798 205.023 43.9598C207.263 45.2398 208.863 46.8398 209.823 48.7598C210.783 50.6798 211.263 52.7598 211.263 54.9998C211.263 58.0398 210.543 60.6531 209.103 62.8398C207.716 64.9731 205.663 66.5998 202.943 67.7198C200.223 68.8398 196.916 69.3998 193.023 69.3998ZM177.183 69.3998H171.103V15.7998H177.183V69.3998Z" fill="#F0F4F1"/>
<path d="M138.68 70.2C134.84 70.2 131.347 69.5067 128.2 68.12C125.054 66.68 122.334 64.7067 120.04 62.2C117.8 59.6933 116.067 56.76 114.84 53.4C113.614 50.04 113 46.4133 113 42.52C113 38.68 113.614 35.1067 114.84 31.8C116.067 28.44 117.8 25.5067 120.04 23C122.334 20.4933 125.054 18.5467 128.2 17.16C131.347 15.72 134.84 15 138.68 15C142.52 15 146.014 15.72 149.16 17.16C152.307 18.5467 155 20.4933 157.24 23C159.534 25.5067 161.294 28.44 162.52 31.8C163.747 35.1067 164.36 38.68 164.36 42.52C164.36 46.4133 163.747 50.04 162.52 53.4C161.294 56.76 159.534 59.6933 157.24 62.2C155 64.7067 152.307 66.68 149.16 68.12C146.014 69.5067 142.52 70.2 138.68 70.2ZM138.76 64.44C142.92 64.44 146.414 63.5067 149.24 61.64C152.12 59.72 154.307 57.1067 155.8 53.8C157.294 50.4933 158.04 46.7333 158.04 42.52C158.04 38.3067 157.294 34.5733 155.8 31.32C154.307 28.0667 152.12 25.5067 149.24 23.64C146.414 21.72 142.92 20.76 138.76 20.76C134.6 20.76 131.08 21.72 128.2 23.64C125.32 25.5067 123.134 28.0667 121.64 31.32C120.147 34.5733 119.4 38.3067 119.4 42.52C119.4 46.7333 120.147 50.4933 121.64 53.8C123.134 57.1067 125.32 59.72 128.2 61.64C131.08 63.5067 134.6 64.44 138.76 64.44Z" fill="#F0F4F1"/>
<path d="M92.8979 47.6398H71.4579V42.5198H91.2179C93.5646 42.5198 95.6979 42.1998 97.6179 41.5598C99.5913 40.8665 101.138 39.7731 102.258 38.2798C103.431 36.7331 104.018 34.6531 104.018 32.0398C104.018 29.3198 103.431 27.1865 102.258 25.6398C101.085 24.0398 99.5113 22.9198 97.5379 22.2798C95.6179 21.5865 93.4846 21.2398 91.1379 21.2398H71.4579V15.7998H92.0979C95.6179 15.7998 98.7379 16.4398 101.458 17.7198C104.178 18.9465 106.311 20.7598 107.858 23.1598C109.458 25.5598 110.258 28.5198 110.258 32.0398C110.258 35.2398 109.511 37.9865 108.018 40.2798C106.578 42.5198 104.551 44.2531 101.938 45.4798C99.3246 46.6531 96.3113 47.2398 92.8979 47.2398V47.6398ZM75.4579 69.3998H69.3779V15.7998H75.4579V69.3998ZM111.778 69.3998H104.578L94.9779 52.7598C93.9646 50.9465 92.6313 49.6398 90.9779 48.8398C89.3779 48.0398 87.2446 47.6398 84.5779 47.6398L92.7379 46.5198C94.1246 46.6265 95.3513 46.9198 96.4179 47.3998C97.4846 47.8798 98.4713 48.5465 99.3779 49.3998C100.338 50.2531 101.218 51.3731 102.018 52.7598L111.778 69.3998Z" fill="#F0F4F1"/>
<path d="M45.96 50.9998H27.08V45.5598H45C47.3467 45.5598 49.5333 45.2131 51.56 44.5198C53.64 43.8265 55.32 42.6265 56.6 40.9198C57.88 39.1598 58.52 36.7865 58.52 33.7998C58.52 30.4931 57.88 27.9331 56.6 26.1198C55.32 24.3065 53.64 23.0531 51.56 22.3598C49.5333 21.6131 47.3467 21.2398 45 21.2398H27.08V15.7998H45.96C49.48 15.7998 52.6533 16.4665 55.48 17.7998C58.36 19.0798 60.6267 21.0531 62.28 23.7198C63.9333 26.3865 64.76 29.7465 64.76 33.7998C64.76 37.5865 63.9333 40.7598 62.28 43.3198C60.6267 45.8798 58.36 47.7998 55.48 49.0798C52.6533 50.3598 49.48 50.9998 45.96 50.9998ZM31.08 69.3998H25V15.7998H31.08V69.3998Z" fill="#F0F4F1"/>
</svg>
